<svg width="24" height="28" viewBox="0 0 24 28" fill="none" xmlns="http://www.w3.org/2000/svg">
<g id="AI">
<path id="Vector" d="M9.29303 5.43568L10.096 7.66568C10.988 10.1407 12.937 12.0897 15.412 12.9817L17.642 13.7847C17.843 13.8577 17.843 14.1427 17.642 14.2147L15.412 15.0177C12.937 15.9097 10.988 17.8587 10.096 20.3337L9.29303 22.5637C9.22003 22.7647 8.93503 22.7647 8.86303 22.5637L8.06003 20.3337C7.16803 17.8587 5.21903 15.9097 2.74403 15.0177L0.514031 14.2147C0.313031 14.1417 0.313031 13.8567 0.514031 13.7847L2.74403 12.9817C5.21903 12.0897 7.16803 10.1407 8.06003 7.66568L8.86303 5.43568C8.93503 5.23368 9.22003 5.23368 9.29303 5.43568Z" fill="url(#paint0_linear_33_4674)"/>
<path id="Vector_2" d="M19.3311 0.0767617L19.7381 1.20576C20.1901 2.45876 21.1771 3.44576 22.4301 3.89776L23.5591 4.30476C23.6611 4.34176 23.6611 4.48576 23.5591 4.52276L22.4301 4.92976C21.1771 5.38176 20.1901 6.36876 19.7381 7.62176L19.3311 8.75076C19.2941 8.85276 19.1501 8.85276 19.1131 8.75076L18.7061 7.62176C18.2541 6.36876 17.2671 5.38176 16.0141 4.92976L14.8851 4.52276C14.7831 4.48576 14.7831 4.34176 14.8851 4.30476L16.0141 3.89776C17.2671 3.44576 18.2541 2.45876 18.7061 1.20576L19.1131 0.0767617C19.1501 -0.0262383 19.2951 -0.0262383 19.3311 0.0767617Z" fill="url(#paint1_linear_33_4674)"/>
<path id="Vector_3" d="M19.3311 19.2498L19.7381 20.3788C20.1901 21.6318 21.1771 22.6188 22.4301 23.0708L23.5591 23.4778C23.6611 23.5148 23.6611 23.6588 23.5591 23.6958L22.4301 24.1028C21.1771 24.5548 20.1901 25.5418 19.7381 26.7948L19.3311 27.9238C19.2941 28.0258 19.1501 28.0258 19.1131 27.9238L18.7061 26.7948C18.2541 25.5418 17.2671 24.5548 16.0141 24.1028L14.8851 23.6958C14.7831 23.6588 14.7831 23.5148 14.8851 23.4778L16.0141 23.0708C17.2671 22.6188 18.2541 21.6318 18.7061 20.3788L19.1131 19.2498C19.1501 19.1478 19.2951 19.1478 19.3311 19.2498Z" fill="url(#paint2_linear_33_4674)"/>
</g>
<defs>
<linearGradient id="paint0_linear_33_4674" x1="8.08772" y1="5.28418" x2="16.098" y2="17.5836" gradientUnits="userSpaceOnUse">
<stop offset="0.0369155" stop-color="#FF0062"/>
<stop offset="1" stop-color="#FF6600"/>
</linearGradient>
<linearGradient id="paint1_linear_33_4674" x1="18.7206" y1="-0.000488183" x2="22.7775" y2="6.22853" gradientUnits="userSpaceOnUse">
<stop offset="0.0369155" stop-color="#FF0062"/>
<stop offset="1" stop-color="#FF6600"/>
</linearGradient>
<linearGradient id="paint2_linear_33_4674" x1="18.7206" y1="19.1733" x2="22.777" y2="25.4021" gradientUnits="userSpaceOnUse">
<stop offset="0.0369155" stop-color="#FF0062"/>
<stop offset="1" stop-color="#FF6600"/>
</linearGradient>
</defs>
</svg>
