<svg width="41" height="40" viewBox="0 0 41 40" fill="none" xmlns="http://www.w3.org/2000/svg">
<path d="M17.1349 19.0706L19.6004 16.6051C16.8852 15.6372 13.7305 16.238 11.5603 18.4083C8.55803 21.411 8.55803 26.2955 11.5603 29.2978C14.5627 32.3002 19.4475 32.3002 22.4493 29.2978C24.6157 27.1321 25.219 23.9868 24.2593 21.2757L21.7872 23.7478C21.8135 25.0065 21.3484 26.2731 20.3901 27.2312C18.5258 29.0959 15.4918 29.0959 13.6266 27.2312C11.7624 25.3667 11.7624 22.3324 13.6266 20.4682C14.5914 19.5035 15.8683 19.0384 17.1349 19.0706Z" fill="#000000"/>
<path d="M25.9407 19.5952C27.6893 23.2719 27.0439 27.8127 24.0045 30.8523C20.1456 34.7112 13.8662 34.7112 10.0073 30.8523C6.14832 26.9933 6.14832 20.7139 10.0073 16.855C13.0509 13.8111 17.6007 13.1679 21.2804 14.926L24.9729 11.2334C19.2072 7.59258 11.473 8.28197 6.45365 13.3014C0.635242 19.1198 0.635242 28.5872 6.45365 34.4056C12.2721 40.2241 21.7395 40.2241 27.5579 34.4056C32.573 29.3908 33.266 21.6647 29.6348 15.901L25.9407 19.5952Z" fill="#000000"/>
<path d="M39.5165 6.27629C39.3519 5.80364 38.9411 5.47474 38.4437 5.41706L35.7525 5.1067L35.4419 2.41573C35.3845 1.91837 35.0556 1.50753 34.583 1.34274C34.1105 1.17817 33.5972 1.29559 33.2433 1.64944L27.9232 6.96957C27.6426 7.25018 27.5075 7.63722 27.5531 8.03181L27.9381 11.3673L17.886 21.4191C16.9732 21.0916 15.9115 21.2921 15.1818 22.0222C14.1738 23.03 14.1738 24.6699 15.1818 25.6775C16.1893 26.6852 17.829 26.6855 18.837 25.6775C19.5672 24.9473 19.7677 23.886 19.4401 22.973L29.4919 12.921L32.8274 13.3062C33.2216 13.3517 33.6091 13.2167 33.8897 12.9358L39.2098 7.61593C39.5637 7.26185 39.6813 6.7487 39.5165 6.27629Z" fill="#000000"/>
</svg>
