<svg width="29" height="156" viewBox="0 0 29 156" fill="none" xmlns="http://www.w3.org/2000/svg">
<ellipse cx="14.5256" cy="13.5" rx="14.0451" ry="13.5" fill="white"/>
<ellipse cx="14.5256" cy="142.5" rx="14.0451" ry="13.5" fill="white"/>
<path fill-rule="evenodd" clip-rule="evenodd" d="M5.6817 16.5001L1 11.889L6.21202 7L10.8937 11.6111C14.878 15.5354 14.878 21.7981 10.8937 25.7224C9.67025 26.9274 9.67025 28.8505 10.8937 30.0556C14.878 33.9798 14.878 40.2426 10.8937 44.1668C9.67025 45.3718 9.67025 47.295 10.8937 48.5C14.878 52.4242 14.878 58.687 10.8937 62.6112C9.67025 63.8163 9.67025 65.7394 10.8937 66.9444C14.8878 70.8783 14.8539 77.1552 10.8794 81.0698C9.66202 82.2688 9.66734 84.181 10.8652 85.3608L10.9794 85.4732C14.9291 89.3634 14.8555 95.5813 10.8768 99.4056C9.70299 100.534 9.70914 102.361 10.8625 103.47C14.8702 107.322 14.8702 113.567 10.8625 117.419C9.69891 118.538 9.69891 120.351 10.8625 121.47C14.8702 125.322 14.8702 131.567 10.8625 135.419C9.69891 136.538 9.69891 138.351 10.8625 139.47L15.5442 143.97L10.3946 148.919L5.71291 144.419C1.70525 140.567 1.70525 134.322 5.71291 130.47C6.87652 129.351 6.87652 127.538 5.71291 126.419C1.70525 122.567 1.70525 116.322 5.71291 112.47C6.87652 111.351 6.87652 109.538 5.71291 108.419C1.69503 104.557 1.72981 98.2981 5.72723 94.4559C6.90652 93.3224 6.91228 91.4899 5.76734 90.3623L5.65315 90.2498C1.67495 86.3316 1.70873 80.0797 5.66739 76.1808C6.90065 74.9661 6.89542 73.0289 5.6817 71.8335C1.69739 67.9092 1.69739 61.6465 5.68171 57.7222C6.90518 56.5172 6.90519 54.5941 5.6817 53.389C1.69739 49.4648 1.69739 43.202 5.6817 39.2778C6.90519 38.0727 6.90519 36.1496 5.6817 34.9446C1.69739 31.0203 1.69739 24.7576 5.6817 20.8333C6.90519 19.6283 6.90519 17.7052 5.6817 16.5001Z" fill="white"/>
</svg>
