<svg width="29" height="155" viewBox="0 0 29 155" fill="none" xmlns="http://www.w3.org/2000/svg">
<path fill-rule="evenodd" clip-rule="evenodd" d="M8.58881 8.75036L13.2169 13.3087C13.557 13.6437 13.8101 14.0299 13.9759 14.441C14.1128 14.2228 14.2777 14.0163 14.4707 13.8262L19.5508 8.82269L13.8952 3.51758L8.81505 8.52112C8.73827 8.59675 8.66286 8.67317 8.58881 8.75036ZM14.113 152.943L14.4368 152.632C18.7855 148.452 18.7855 141.675 14.4368 137.495C14.1091 137.18 13.8665 136.815 13.7089 136.425C13.5812 136.621 13.4285 136.807 13.2507 136.978C8.90201 141.158 8.90201 147.935 13.2507 152.115L14.113 152.943ZM13.9786 133.653C14.1063 133.457 14.259 133.271 14.4368 133.1C18.7855 128.92 18.7855 122.143 14.4368 117.963C14.1091 117.648 13.8665 117.283 13.7089 116.893C13.5812 117.089 13.4285 117.275 13.2507 117.446C8.90201 121.626 8.90201 128.403 13.2507 132.583C13.5784 132.898 13.821 133.263 13.9786 133.653ZM13.9786 114.122C14.1063 113.925 14.259 113.739 14.4368 113.568C18.7966 109.378 18.7589 102.586 14.4213 98.4165C14.1031 98.1107 13.8636 97.7579 13.7025 97.3817C13.5788 97.5648 13.4334 97.7383 13.2663 97.8989C8.92866 102.068 8.89092 108.86 13.2507 113.051C13.5784 113.366 13.821 113.731 13.9786 114.122ZM13.9858 94.4434C14.0986 94.2779 14.2292 94.1207 14.3777 93.9745L14.5016 93.8525C18.8184 89.6008 18.7818 82.8169 14.4862 78.5861C14.138 78.2431 13.8808 77.8472 13.714 77.4261C13.5734 77.6543 13.4026 77.8703 13.2013 78.0685C8.90579 82.2993 8.86913 89.0832 13.1859 93.3349L13.3098 93.4569C13.6064 93.7491 13.8319 94.0848 13.9858 94.4434ZM13.9741 74.4893C14.1111 74.2684 14.2766 74.0599 14.4707 73.8688C18.7941 69.6106 18.7941 62.8148 14.4707 58.5566C14.1305 58.2215 13.8775 57.8354 13.7116 57.4242C13.5748 57.6424 13.4099 57.8489 13.2169 58.039C8.89348 62.2972 8.89348 69.093 13.2169 73.3512C13.5569 73.6861 13.8095 74.0745 13.9741 74.4893ZM13.9759 54.4694C14.1128 54.2512 14.2777 54.0447 14.4707 53.8546C18.7941 49.5964 18.7941 42.8006 14.4707 38.5424C14.1305 38.2074 13.8775 37.8212 13.7116 37.41C13.5748 37.6282 13.4099 37.8348 13.2169 38.0248C8.89348 42.283 8.89348 49.0788 13.2169 53.337C13.557 53.6721 13.8101 54.0582 13.9759 54.4694ZM13.9759 34.4552C14.1128 34.237 14.2777 34.0305 14.4707 33.8404C18.7941 29.5822 18.7941 22.7864 14.4707 18.5282C14.1305 18.1932 13.8775 17.807 13.7116 17.3959C13.5748 17.6141 13.4099 17.8206 13.2169 18.0106C8.89348 22.2689 8.89348 29.0646 13.2169 33.3228C13.557 33.6579 13.8101 34.0441 13.9759 34.4552Z" fill="white"/>
<ellipse cx="14.8615" cy="13.5" rx="14.0451" ry="13.5" fill="white"/>
<ellipse cx="14.8615" cy="141.5" rx="14.0451" ry="13.5" fill="white"/>
</svg>
