<svg width="35" height="34" viewBox="0 0 35 34" fill="none" xmlns="http://www.w3.org/2000/svg">
<g clip-path="url(#clip0_25_5539)">
<path fill-rule="evenodd" clip-rule="evenodd" d="M12.0079 25.3232L15.1658 29.4275C15.4525 29.8 15.4022 30.3274 15.0541 30.6432L13.968 31.6289C13.7741 31.8048 13.5407 31.8831 13.2798 31.8595C13.019 31.836 12.8042 31.7165 12.6441 31.5093L9.14297 26.9772L12.0079 25.3232ZM29.3312 14.79H32.5474C33.0619 14.79 33.4782 14.3699 33.4771 13.8561C33.4761 13.3416 33.0566 12.9259 32.5428 12.9259H29.3265C28.8121 12.9259 28.3958 13.3461 28.3969 13.8598C28.3979 14.3744 28.8173 14.79 29.3312 14.79ZM25.5136 6.32176L27.1217 3.53642C27.3787 3.09143 27.2284 2.52034 26.7834 2.26215C26.339 2.00436 25.767 2.15477 25.5098 2.60029L23.9016 5.38563C23.6447 5.83062 23.7949 6.40171 24.24 6.6599C24.6844 6.91769 25.2563 6.76728 25.5136 6.32176ZM29.2347 9.65814L31.8752 8.13366C32.3235 7.87487 32.477 7.30185 32.2182 6.85354C31.9594 6.4053 31.3864 6.25177 30.9381 6.51055L28.2976 8.03511C27.8494 8.29389 27.6959 8.86691 27.9547 9.31522C28.2134 9.7634 28.7865 9.91693 29.2347 9.65814ZM25.0818 13.8529L28.1962 19.2473C28.781 20.2601 28.4307 21.5672 27.418 22.1519C26.4729 22.6976 25.2716 22.429 24.6401 21.5676H24.6399C21.1925 21.0432 16.7019 21.6066 12.2365 23.3473L7.9436 15.9118C11.6852 12.9183 14.4268 9.32996 15.6965 6.08223L15.6965 6.0821C15.2505 5.10009 15.6169 3.91141 16.5694 3.3615C17.5822 2.77673 18.8892 3.12702 19.474 4.13978L22.5884 9.53423C22.6771 9.4657 22.7713 9.40228 22.8711 9.34471C24.0745 8.6499 25.6134 9.06221 26.3082 10.2657C27.003 11.4692 26.5907 13.0081 25.3872 13.7029C25.2875 13.7605 25.1855 13.8104 25.0818 13.8529ZM11.1571 24.1338L6.65877 16.3427L3.08273 18.4073C0.909785 19.6618 0.158465 22.4661 1.41295 24.639L1.41301 24.6391C2.66756 26.8119 5.47176 27.5633 7.64471 26.3088L11.2208 24.2442L11.1571 24.1338Z" fill="black"/>
</g>
<defs>
<clipPath id="clip0_25_5539">
<rect width="34" height="34" fill="white" transform="translate(0.141235)"/>
</clipPath>
</defs>
</svg>
