<svg width="20" height="20" viewBox="0 0 20 20" fill="none" xmlns="http://www.w3.org/2000/svg">
<path d="M15.8346 3.33301H4.16797C3.5219 3.33249 2.90071 3.58211 2.43464 4.02954C1.96857 4.47697 1.69381 5.08745 1.66797 5.73301V15.0997C1.69381 15.7452 1.96857 16.3557 2.43464 16.8031C2.90071 17.2506 3.5219 17.5002 4.16797 17.4997H15.8346C16.4807 17.5002 17.1019 17.2506 17.568 16.8031C18.034 16.3557 18.3088 15.7452 18.3346 15.0997V5.73301C18.3088 5.08745 18.034 4.47697 17.568 4.02954C17.1019 3.58211 16.4807 3.33249 15.8346 3.33301ZM16.668 15.0997C16.6434 15.3029 16.5449 15.49 16.3912 15.6253C16.2375 15.7605 16.0394 15.8345 15.8346 15.833H4.16797C3.96324 15.8345 3.76513 15.7605 3.61143 15.6253C3.45773 15.49 3.3592 15.3029 3.33464 15.0997V5.73301C3.3592 5.52975 3.45773 5.34265 3.61143 5.20739C3.76513 5.07214 3.96324 4.9982 4.16797 4.99968H15.8346C16.0394 4.9982 16.2375 5.07214 16.3912 5.20739C16.5449 5.34265 16.6434 5.52975 16.668 5.73301V15.0997Z" fill="#FFBF00"/>
<path d="M6.80599 6.24968C6.58498 6.24968 6.37301 6.16188 6.21673 6.0056C6.06045 5.84932 5.97266 5.63736 5.97266 5.41634V2.91634C5.97266 2.69533 6.06045 2.48337 6.21673 2.32709C6.37301 2.17081 6.58498 2.08301 6.80599 2.08301C7.027 2.08301 7.23896 2.17081 7.39524 2.32709C7.55153 2.48337 7.63932 2.69533 7.63932 2.91634V5.41634C7.63932 5.63736 7.55153 5.84932 7.39524 6.0056C7.23896 6.16188 7.027 6.24968 6.80599 6.24968Z" fill="#FFBF00"/>
<path d="M13.1966 6.24968C12.9756 6.24968 12.7636 6.16188 12.6074 6.0056C12.4511 5.84932 12.3633 5.63736 12.3633 5.41634V2.91634C12.3633 2.80691 12.3848 2.69854 12.4267 2.59744C12.4686 2.49633 12.53 2.40447 12.6074 2.32709C12.6847 2.2497 12.7766 2.18832 12.8777 2.14644C12.9788 2.10456 13.0872 2.08301 13.1966 2.08301C13.306 2.08301 13.4144 2.10456 13.5155 2.14644C13.6166 2.18832 13.7085 2.2497 13.7859 2.32709C13.8633 2.40447 13.9246 2.49633 13.9665 2.59744C14.0084 2.69854 14.0299 2.80691 14.0299 2.91634V5.41634C14.0299 5.63736 13.9422 5.84932 13.7859 6.0056C13.6296 6.16188 13.4176 6.24968 13.1966 6.24968Z" fill="#FFBF00"/>
<path d="M2.5 8.33301V15.433C2.51502 15.6681 2.62249 15.8878 2.79893 16.0439C2.97538 16.2001 3.20645 16.28 3.44167 16.2663H16.5667C16.8005 16.2778 17.0294 16.1968 17.204 16.0409C17.3787 15.885 17.485 15.6666 17.5 15.433V8.33301H2.5ZM12.4 11.408L10 13.908C9.92226 13.9887 9.82906 14.0528 9.72597 14.0966C9.62288 14.1404 9.51202 14.163 9.4 14.163C9.28798 14.163 9.17712 14.1404 9.07403 14.0966C8.97093 14.0528 8.87774 13.9887 8.8 13.908L7.6 12.658C7.44479 12.5019 7.35767 12.2907 7.35767 12.0705C7.35767 11.8504 7.44479 11.6391 7.6 11.483C7.67747 11.4049 7.76964 11.3429 7.87119 11.3006C7.97274 11.2583 8.08166 11.2365 8.19167 11.2365C8.30168 11.2365 8.4106 11.2583 8.51215 11.3006C8.6137 11.3429 8.70586 11.4049 8.78333 11.483L9.375 12.0997L11.1667 10.233C11.2441 10.1549 11.3363 10.0929 11.4379 10.0506C11.5394 10.0083 11.6483 9.98651 11.7583 9.98651C11.8683 9.98651 11.9773 10.0083 12.0788 10.0506C12.1804 10.0929 12.2725 10.1549 12.35 10.233C12.512 10.3824 12.6083 10.59 12.6176 10.8102C12.627 11.0304 12.5488 11.2454 12.4 11.408Z" fill="#FFBF00"/>
<path d="M18.3346 7.91634C18.3346 8.13735 18.2468 8.34932 18.0906 8.5056C17.9343 8.66188 17.7223 8.74967 17.5013 8.74967H2.5013C2.28029 8.74967 2.06833 8.66188 1.91205 8.5056C1.75577 8.34932 1.66797 8.13735 1.66797 7.91634C1.66797 7.69533 1.75577 7.48337 1.91205 7.32709C2.06833 7.17081 2.28029 7.08301 2.5013 7.08301H17.5013C17.7223 7.08301 17.9343 7.17081 18.0906 7.32709C18.2468 7.48337 18.3346 7.69533 18.3346 7.91634Z" fill="#FFBF00"/>
</svg>
