<svg width="35" height="34" viewBox="0 0 35 34" fill="none" xmlns="http://www.w3.org/2000/svg">
<g clip-path="url(#clip0_25_5518)">
<path d="M17.8594 17.5C11.5784 17.5 5.91302 16.5989 0.859375 14.8007V11.5C0.859375 9.84314 2.20251 8.50001 3.85934 8.50001H9.85935V12.5C9.85935 13.0523 10.3071 13.5 10.8594 13.5C11.4117 13.5 11.8594 13.0523 11.8594 12.5V8.50001H23.8594V12.5C23.8594 13.0523 24.3071 13.5 24.8594 13.5C25.4117 13.5 25.8594 13.0523 25.8594 12.5V8.50001H31.8594C33.5162 8.50001 34.8594 9.84314 34.8594 11.5V14.8007C29.8057 16.5989 24.1403 17.5 17.8594 17.5ZM34.8594 28.5C34.8594 30.1569 33.5162 31.5 31.8594 31.5H3.85934C2.20251 31.5 0.859375 30.1569 0.859375 28.5V16.9175C5.96429 18.6403 11.6321 19.5001 17.8594 19.5001C24.0867 19.5001 29.7545 18.6404 34.8594 16.9175V28.5ZM15.3594 24.5H20.3594C20.9117 24.5 21.3594 24.0523 21.3594 23.5C21.3594 22.9477 20.9117 22.5 20.3594 22.5H15.3594C14.8071 22.5 14.3594 22.9477 14.3594 23.5C14.3594 24.0523 14.8071 24.5 15.3594 24.5ZM11.8594 8.50001H9.85935V6.49998C9.85935 4.29085 11.6502 2.5 13.8593 2.5H21.8594C24.0685 2.5 25.8593 4.29085 25.8593 6.49998V8.50001H23.8593V6.49998C23.8593 5.39538 22.9639 4.49996 21.8593 4.49996H13.8594C12.7549 4.49996 11.8594 5.39538 11.8594 6.49998V8.50001Z" fill="black"/>
</g>
<defs>
<clipPath id="clip0_25_5518">
<rect width="34" height="34" fill="white" transform="translate(0.859375)"/>
</clipPath>
</defs>
</svg>
