<svg width="24" height="24" viewBox="0 0 24 24" fill="none" xmlns="http://www.w3.org/2000/svg">
<path d="M21.5789 12.234C21.5789 11.557 21.5239 10.875 21.4069 10.209H12.0039V14.048H17.3879C17.2775 14.6612 17.0441 15.2457 16.7018 15.7663C16.3594 16.2869 15.9152 16.7327 15.3959 17.077V19.567H18.6079C20.4939 17.831 21.5779 15.267 21.5779 12.234H21.5789Z" fill="#2A84FC"/>
<path d="M12.0028 21.974C14.6908 21.974 16.9588 21.092 18.6108 19.568L15.3978 17.077C14.5048 17.685 13.3508 18.029 12.0058 18.029C9.40575 18.029 7.19975 16.275 6.40875 13.916H3.09375V16.483C3.92395 18.134 5.19669 19.5218 6.76987 20.4914C8.34305 21.461 10.1548 21.9743 12.0028 21.974Z" fill="#00AC47"/>
<path d="M6.4078 13.9163C5.99017 12.6782 5.99017 11.3373 6.4078 10.0992V7.53125H3.0958C2.39836 8.92042 2.03516 10.4533 2.03516 12.0077C2.03516 13.5622 2.39836 15.0951 3.0958 16.4842L6.4078 13.9163Z" fill="#FFBA00"/>
<path d="M12.0027 5.98182C13.4241 5.95879 14.7975 6.49537 15.8267 7.47582L18.6727 4.62982C16.8678 2.93643 14.4775 2.00721 12.0027 2.03682C10.1545 2.03634 8.34248 2.5498 6.76922 3.51982C5.19596 4.48985 3.9234 5.87822 3.09375 7.52982L6.40575 10.0998C7.19275 7.73682 9.40175 5.98182 12.0027 5.98182Z" fill="#FC2C25"/>
</svg>
