<svg width="36" height="34" viewBox="0 0 36 34" fill="none" xmlns="http://www.w3.org/2000/svg">
<g id="Intersect">
<path d="M11.5039 1.39384C5.08542 3.87638 0.553238 9.92821 0.553238 17C0.553238 20.9293 1.95246 24.5437 4.29703 27.4059C6.98791 18.8234 9.48343 10.1682 11.5039 1.39384Z" fill="black"/>
<path d="M6.92866 29.9923L18.6426 25.2127L21.0269 33.5577C20.0433 33.7235 19.0314 33.81 17.9986 33.81C17.8673 33.81 17.7362 33.8086 17.6056 33.8058C13.5557 33.7192 9.84618 32.303 6.92866 29.9923Z" fill="black"/>
<path d="M35.426 16.1727L35.4246 16.1733C34.9777 7.28018 27.3582 0.200778 18.02 0.189952C18.0134 0.189945 18.0067 0.189941 18 0.189941C16.9888 0.189941 15.9977 0.27283 15.0336 0.431941L20.0435 22.6402H20.069L35.4246 16.1733C35.4384 16.4472 35.4454 16.7228 35.4454 17C35.4454 17.5097 35.4218 18.0142 35.3757 18.5124L20.4765 24.3976L22.5279 33.238C29.4798 31.4423 34.7186 25.6125 35.3757 18.5124L35.3772 18.5119C35.4232 18.0138 35.4468 17.5095 35.4468 17C35.4468 16.7226 35.4398 16.4468 35.426 16.1727Z" fill="black"/>
<path d="M18.1588 23.5061L5.80597 28.6764L13.0139 5.8046L18.1588 23.5061Z" fill="black"/>
</g>
</svg>
