<svg width="254" height="279" viewBox="0 0 254 279" fill="none" xmlns="http://www.w3.org/2000/svg">
<g opacity="0.7" clip-path="url(#clip0_91_5747)">
<mask id="path-1-inside-1_91_5747" fill="white">
<path fill-rule="evenodd" clip-rule="evenodd" d="M120.581 191.485L77.3986 2.961C134.76 -6.77202 193.625 16.0794 227.354 62.6286C241 83.25 246.858 105.158 253.134 128.855C254.423 133.722 254.208 135.626 252.919 136.684L120.795 191.485H120.581ZM49.4697 11.0011L49.4172 11.2275C40.4116 13.7698 31.4081 18.4161 23.4746 23.2732C-31.5233 56.704 -58.5926 121.238 -40.3316 183.233C-34.7459 201.641 -25.5079 218.991 -13.0475 233.591C10.3461 160.244 32.0244 86.2634 49.4172 11.2275L49.4697 11.2127V11.0011ZM0.484375 241.631L104.68 198.679L61.2828 51.6256L0.484375 241.631ZM142.277 282.679L124.23 206.085L253.132 155.939C249.05 216.453 201.571 268.291 142.277 282.679ZM129.816 285.43L108.762 212.856L7.14453 253.692C38.2957 279.294 80.1886 290.931 120.363 286.911C122.12 286.787 123.951 286.447 125.812 286.101C127.136 285.855 128.476 285.606 129.816 285.43Z"/>
</mask>
<path d="M77.3986 2.961L77.064 0.98918L74.9763 1.34342L75.4491 3.40754L77.3986 2.961ZM120.581 191.485L118.631 191.932L118.987 193.485H120.581V191.485ZM227.354 62.6286L229.022 61.5249L228.998 61.4895L228.973 61.4551L227.354 62.6286ZM253.134 128.855L251.201 129.367V129.367L253.134 128.855ZM252.919 136.684L253.685 138.532L253.959 138.418L254.188 138.23L252.919 136.684ZM120.795 191.485V193.485H121.194L121.562 193.333L120.795 191.485ZM49.4697 11.0011H51.4697L47.5213 10.5496L49.4697 11.0011ZM23.4746 23.2732L24.5134 24.9823L24.5188 24.9789L23.4746 23.2732ZM-40.3316 183.233L-42.2501 183.798L-42.2478 183.806L-42.2454 183.814L-40.3316 183.233ZM-13.0475 233.591L-14.5687 234.889L-12.2346 237.624L-11.142 234.199L-13.0475 233.591ZM49.4697 11.2127L50.0122 13.1377L51.4697 12.727V11.2127H49.4697ZM104.68 198.679L105.442 200.528L107.108 199.841L106.598 198.113L104.68 198.679ZM0.484375 241.631L-1.42048 241.021L-2.73198 245.12L1.24661 243.48L0.484375 241.631ZM61.2828 51.6256L63.201 51.0595L61.3601 44.8215L59.378 51.0161L61.2828 51.6256ZM124.23 206.085L123.505 204.221L121.885 204.851L122.284 206.543L124.23 206.085ZM142.277 282.679L140.33 283.138L140.792 285.098L142.748 284.623L142.277 282.679ZM253.132 155.939L255.127 156.073L255.339 152.934L252.407 154.075L253.132 155.939ZM108.762 212.856L110.683 212.298L110.067 210.176L108.016 211L108.762 212.856ZM129.816 285.43L130.076 287.413L132.385 287.11L131.736 284.873L129.816 285.43ZM7.14453 253.692L6.39877 251.836L3.26766 253.094L5.87465 255.237L7.14453 253.692ZM120.363 286.911L120.223 284.916L120.193 284.918L120.164 284.921L120.363 286.911ZM125.812 286.101L125.447 284.135H125.447L125.812 286.101ZM75.4491 3.40754L118.631 191.932L122.53 191.039L79.3481 2.51446L75.4491 3.40754ZM228.973 61.4551C194.777 14.2608 135.139 -8.86503 77.064 0.98918L77.7332 4.93281C134.38 -4.67901 192.473 17.8981 225.734 63.8021L228.973 61.4551ZM255.067 128.343C248.802 104.684 242.876 82.4606 229.022 61.5249L225.686 63.7323C239.124 84.0394 244.915 105.632 251.201 129.367L255.067 128.343ZM254.188 138.23C255.361 137.268 255.918 135.944 255.991 134.286C256.059 132.752 255.722 130.815 255.067 128.343L251.201 129.367C251.835 131.762 252.035 133.211 251.995 134.11C251.961 134.886 251.767 135.043 251.65 135.138L254.188 138.23ZM121.562 193.333L253.685 138.532L252.153 134.837L120.029 189.638L121.562 193.333ZM120.581 193.485H120.795V189.485H120.581V193.485ZM51.3656 11.679L51.418 11.4527L47.5213 10.5496L47.4688 10.776L51.3656 11.679ZM24.5188 24.9789C32.382 20.1649 41.2071 15.6234 49.9606 13.1523L48.8738 9.30275C39.6161 11.9162 30.4341 16.6674 22.4303 21.5675L24.5188 24.9789ZM-38.4131 182.668C-56.4033 121.593 -29.7548 57.9695 24.5134 24.9822L22.4357 21.5642C-33.2919 55.4385 -60.782 120.884 -42.2501 183.798L-38.4131 182.668ZM-11.5262 232.293C-23.7975 217.915 -32.9073 200.812 -38.4178 182.652L-42.2454 183.814C-36.5844 202.47 -27.2184 220.068 -14.5687 234.889L-11.5262 232.293ZM47.4689 10.7759C30.0928 85.7396 8.43174 159.664 -14.9529 232.983L-11.142 234.199C12.2604 160.824 33.956 86.7872 51.3655 11.6791L47.4689 10.7759ZM48.9271 9.28773L48.8747 9.30251L49.9597 13.1525L50.0122 13.1377L48.9271 9.28773ZM47.4697 11.0011V11.2127H51.4697V11.0011H47.4697ZM103.917 196.83L-0.277859 239.782L1.24661 243.48L105.442 200.528L103.917 196.83ZM59.3646 52.1917L102.761 199.245L106.598 198.113L63.201 51.0595L59.3646 52.1917ZM2.38923 242.24L63.1877 52.2351L59.378 51.0161L-1.42048 241.021L2.38923 242.24ZM122.284 206.543L140.33 283.138L144.223 282.221L126.177 205.626L122.284 206.543ZM252.407 154.075L123.505 204.221L124.956 207.949L253.857 157.802L252.407 154.075ZM142.748 284.623C202.808 270.049 250.981 217.54 255.127 156.073L251.136 155.804C247.119 215.365 200.334 266.534 141.805 280.736L142.748 284.623ZM106.841 213.413L127.895 285.987L131.736 284.873L110.683 212.298L106.841 213.413ZM7.89029 255.548L109.507 214.711L108.016 211L6.39877 251.836L7.89029 255.548ZM120.164 284.921C80.4821 288.892 39.1269 277.388 8.41441 252.147L5.87465 255.237C37.4645 281.2 79.8951 292.971 120.562 288.901L120.164 284.921ZM125.447 284.135C123.562 284.485 121.846 284.802 120.223 284.916L120.503 288.906C122.395 288.773 124.341 288.409 126.178 288.067L125.447 284.135ZM129.555 283.447C128.154 283.631 126.762 283.89 125.447 284.135L126.178 288.067C127.511 287.82 128.798 287.581 130.076 287.413L129.555 283.447Z" fill="url(#paint0_linear_91_5747)" mask="url(#path-1-inside-1_91_5747)"/>
</g>
<defs>
<linearGradient id="paint0_linear_91_5747" x1="112.562" y1="238.002" x2="257.5" y2="98.2497" gradientUnits="userSpaceOnUse">
<stop stop-color="white"/>
<stop offset="0.786583" stop-color="white"/>
<stop offset="1" stop-color="white" stop-opacity="0.1"/>
</linearGradient>
<clipPath id="clip0_91_5747">
<rect width="254" height="278" fill="white" transform="translate(0 0.75)"/>
</clipPath>
</defs>
</svg>
