<svg width="20" height="20" viewBox="0 0 20 20" fill="none" xmlns="http://www.w3.org/2000/svg">
<path fill-rule="evenodd" clip-rule="evenodd" d="M2.45172 3.84223L7.85484 9.2477C9.03328 10.4239 10.9596 10.4249 12.139 9.2477L17.5421 3.84223C17.5966 3.78781 17.5886 3.6982 17.5255 3.65418C16.9744 3.26984 16.3039 3.04199 15.5816 3.04199H4.41227C3.68996 3.04199 3.01945 3.26988 2.46836 3.65418C2.40523 3.6982 2.3973 3.78781 2.45172 3.84223ZM1.00781 6.44641C1.00781 5.87844 1.14863 5.3418 1.39668 4.87012C1.43547 4.79633 1.53379 4.78141 1.59273 4.84035L6.92746 10.1751C8.6168 11.8669 11.3761 11.8679 13.0664 10.1751L18.4012 4.84035C18.4601 4.78141 18.5584 4.79633 18.5972 4.87012C18.8452 5.3418 18.9861 5.87848 18.9861 6.44641V13.5533C18.9861 15.432 17.4579 16.9578 15.5816 16.9578H4.41227C2.53602 16.9578 1.00781 15.432 1.00781 13.5533V6.44641Z" fill="#FFBF00"/>
</svg>
