<svg width="26" height="26" viewBox="0 0 26 26" fill="none" xmlns="http://www.w3.org/2000/svg">
<path fill-rule="evenodd" clip-rule="evenodd" d="M3.18958 4.99538L10.2136 12.0225C11.7456 13.5515 14.2498 13.5528 15.7831 12.0225L22.8071 4.99538C22.8779 4.92464 22.8676 4.80815 22.7855 4.75092C22.0691 4.25129 21.1974 3.95508 20.2585 3.95508H5.73829C4.79929 3.95508 3.92763 4.25134 3.21121 4.75092C3.12915 4.80815 3.11884 4.92464 3.18958 4.99538ZM1.3125 8.38082C1.3125 7.64246 1.49557 6.94482 1.81803 6.33164C1.86845 6.23571 1.99627 6.21632 2.0729 6.29295L9.00804 13.2281C11.2042 15.4274 14.7913 15.4287 16.9887 13.2281L23.9239 6.29295C24.0005 6.21632 24.1283 6.23571 24.1787 6.33164C24.5011 6.94482 24.6843 7.64251 24.6843 8.38082V17.6198C24.6843 20.062 22.6977 22.0456 20.2585 22.0456H5.73829C3.29916 22.0456 1.3125 20.062 1.3125 17.6198V8.38082Z" fill="#171717"/>
</svg>
