<svg width="20" height="20" viewBox="0 0 20 20" fill="none" xmlns="http://www.w3.org/2000/svg">
<g id="mail (2) 1">
<path id="Vector" fill-rule="evenodd" clip-rule="evenodd" d="M2.45562 3.84223L7.85875 9.24769C9.03719 10.4239 10.9635 10.4249 12.1429 9.24769L17.5461 3.84223C17.6005 3.78781 17.5925 3.6982 17.5294 3.65418C16.9783 3.26984 16.3078 3.04199 15.5855 3.04199H4.41617C3.69387 3.04199 3.02336 3.26988 2.47227 3.65418C2.40914 3.6982 2.40121 3.78781 2.45562 3.84223ZM1.01172 6.44641C1.01172 5.87844 1.15254 5.3418 1.40059 4.87012C1.43937 4.79633 1.5377 4.78141 1.59664 4.84035L6.93137 10.1751C8.6207 11.8669 11.38 11.8679 13.0704 10.1751L18.4051 4.84035C18.464 4.78141 18.5623 4.79633 18.6011 4.87012C18.8491 5.3418 18.99 5.87848 18.99 6.44641V13.5533C18.99 15.432 17.4618 16.9578 15.5855 16.9578H4.41617C2.53992 16.9578 1.01172 15.432 1.01172 13.5533V6.44641Z" fill="white"/>
</g>
</svg>
