<svg width="21" height="20" viewBox="0 0 21 20" fill="none" xmlns="http://www.w3.org/2000/svg">
<path d="M10.5011 0C6.50711 0 3.25781 3.2493 3.25781 7.2432C3.25781 12.1998 9.7398 19.4763 10.0158 19.7836C10.275 20.0723 10.7276 20.0718 10.9863 19.7836C11.2623 19.4763 17.7443 12.1998 17.7443 7.2432C17.7442 3.2493 14.495 0 10.5011 0ZM10.5011 10.8875C8.4916 10.8875 6.85684 9.25266 6.85684 7.2432C6.85684 5.23375 8.49164 3.59898 10.5011 3.59898C12.5105 3.59898 14.1452 5.23379 14.1452 7.24324C14.1452 9.2527 12.5105 10.8875 10.5011 10.8875Z" fill="#FFBF00"/>
</svg>
