<svg width="20" height="20" viewBox="0 0 20 20" fill="none" xmlns="http://www.w3.org/2000/svg">
<g id="phone-receiver-silhouette 1" clip-path="url(#clip0_2001_3303)">
<g id="Group">
<path id="Vector" d="M17.2315 13.9199C16.0233 12.8865 14.7972 12.2606 13.6038 13.2924L12.8912 13.916C12.3699 14.3686 11.4005 16.4838 7.65261 12.1724C3.90549 7.86641 6.13534 7.19597 6.65749 6.74719L7.37397 6.1228C8.5611 5.08865 8.1131 3.7868 7.2569 2.4467L6.74022 1.63499C5.88012 0.298016 4.94353 -0.580033 3.75329 0.452552L3.11017 1.0145C2.58412 1.39772 1.11368 2.64338 0.756998 5.00982C0.32773 7.84924 1.68188 11.1007 4.78432 14.6684C7.88285 18.2375 10.9166 20.0303 13.7904 19.9991C16.1787 19.9733 17.621 18.6918 18.0721 18.2258L18.7176 17.6631C19.9047 16.6313 19.1671 15.5807 17.9582 14.545L17.2315 13.9199Z" fill="white"/>
</g>
</g>
<defs>
<clipPath id="clip0_2001_3303">
<rect width="20" height="20" fill="white"/>
</clipPath>
</defs>
</svg>
