<svg width="26" height="26" viewBox="0 0 26 26" fill="none" xmlns="http://www.w3.org/2000/svg">
<g id="phone-receiver-silhouette 1" clip-path="url(#clip0_25_5824)">
<g id="Group">
<path id="Vector" d="M22.4007 18.0961C20.83 16.7528 19.236 15.939 17.6846 17.2804L16.7583 18.0911C16.0805 18.6796 14.8203 21.4292 9.94805 15.8244C5.07679 10.2266 7.9756 9.35507 8.65439 8.77166L9.58582 7.95995C11.1291 6.61556 10.5467 4.92315 9.43363 3.18103L8.76194 2.12581C7.64381 0.387738 6.42625 -0.753726 4.87894 0.588635L4.04288 1.31917C3.35901 1.81736 1.44744 3.43671 0.983756 6.51308C0.425707 10.2043 2.1861 14.4313 6.21927 19.0692C10.2474 23.7091 14.1912 26.0397 17.9271 25.9991C21.0319 25.9657 22.907 24.2996 23.4934 23.6939L24.3325 22.9623C25.8758 21.621 24.9169 20.2553 23.3453 18.9089L22.4007 18.0961Z" fill="#171717"/>
</g>
</g>
<defs>
<clipPath id="clip0_25_5824">
<rect width="26" height="26" fill="white"/>
</clipPath>
</defs>
</svg>
