<svg width="21" height="20" viewBox="0 0 21 20" fill="none" xmlns="http://www.w3.org/2000/svg">
<g clip-path="url(#clip0_1_21)">
<path d="M17.7318 13.92C16.5236 12.8866 15.2974 12.2607 14.1041 13.2925L13.3915 13.9161C12.8701 14.3688 11.9008 16.4839 8.15285 12.1725C4.40573 7.86653 6.63558 7.19609 7.15773 6.74731L7.87422 6.12292C9.06134 5.08877 8.61334 3.78692 7.75714 2.44682L7.24046 1.63511C6.38036 0.298138 5.44378 -0.579911 4.25354 0.452674L3.61041 1.01463C3.08436 1.39785 1.61393 2.6435 1.25724 5.00994C0.827974 7.84936 2.18212 11.1009 5.28456 14.6685C8.3831 18.2376 11.4169 20.0304 14.2906 19.9992C16.6789 19.9735 18.1212 18.6919 18.5724 18.2259L19.2178 17.6632C20.4049 16.6314 19.6674 15.5809 18.4584 14.5452L17.7318 13.92Z" fill="#FFBF00"/>
</g>
<defs>
<clipPath id="clip0_1_21">
<rect width="20" height="20" fill="white" transform="translate(0.5)"/>
</clipPath>
</defs>
</svg>
