<svg width="71" height="71" viewBox="0 0 71 71" fill="none" xmlns="http://www.w3.org/2000/svg">
<g clip-path="url(#clip0_7_35)">
<rect x="20" y="18.2012" width="36" height="36" fill="#FFBF00"/>
<path d="M35.5 0C15.8942 0 0 15.8939 0 35.5C0 55.1061 15.8942 71 35.5 71C55.1058 71 71 55.1061 71 35.5C71 15.8939 55.1058 0 35.5 0ZM47.7697 37.3818L30.0197 48.4755C29.6605 48.6998 29.2521 48.8125 28.8438 48.8125C28.4738 48.8125 28.1032 48.7204 27.7679 48.534C27.0626 48.143 26.625 47.4008 26.625 46.5938V24.4062C26.625 23.5992 27.0626 22.857 27.7679 22.466C28.4732 22.0727 29.3356 22.0965 30.0197 22.5245L47.7697 33.6182C48.4181 34.0245 48.8125 34.7352 48.8125 35.5C48.8125 36.2648 48.4181 36.9756 47.7697 37.3818Z" fill="white"/>
</g>
<defs>
<clipPath id="clip0_7_35">
<rect width="71" height="71" fill="white"/>
</clipPath>
</defs>
</svg>
