<svg width="189" height="408" viewBox="0 0 189 408" fill="none" xmlns="http://www.w3.org/2000/svg">
<path d="M39.6061 0.0338824H33.0891H22.5616C4.91548 0.0338824 0.332824 14.3163 0.5 21.5C0.5 134.602 0 366.056 0 384.5C0 402.944 14.3708 407.555 21.5562 407.555C62.8305 407.555 150.696 407 167.941 407C185.186 407 189.163 391.63 188.996 383.945V21.5849C188.996 4.74496 174.625 0.200835 167.439 0.0337716H150.896C147.387 0.0337716 147.001 1.99751 147.001 3C147.001 13.8258 137.681 15.3342 132.501 15H55.2993C42.7666 15 42.6139 6.54935 42.6139 3.04102C42.6139 0.234358 40.6087 -0.133181 39.6061 0.0338824Z" fill="#D9D9D9"/>
</svg>
