<svg width="35" height="32" viewBox="0 0 35 32" fill="none" xmlns="http://www.w3.org/2000/svg">
<path d="M11.502 28.1024C6.93054 27.8438 3.29059 24.043 3.29059 19.4075C3.29059 14.6052 7.19729 10.6981 11.9992 10.6981C14.1469 10.6981 16.2091 11.4862 17.8061 12.9171C19.6504 14.5667 20.7086 16.9326 20.7086 19.4075C20.7086 21.483 19.964 23.4815 18.6356 25.046C19.5778 25.6564 20.6594 26.0211 21.7867 26.1042C23.1433 24.1294 23.8579 21.825 23.8579 19.4075C23.8579 16.8174 23.0379 14.3572 21.4868 12.293C20.2542 10.6522 18.6137 9.35322 16.7426 8.53636C15.7055 8.08276 14.6212 7.78439 13.5043 7.64364C15.7619 5.98175 16.6252 4.58887 16.6252 3.374C16.6252 1.91616 15.4434 0.734375 13.9855 0.734375C13.1934 0.734375 12.4833 1.08376 11.9995 1.63626C11.5157 1.08376 10.8056 0.734375 10.0135 0.734375C8.55563 0.734375 7.37385 1.91616 7.37385 3.374C7.37385 4.58907 8.2374 5.98215 10.4958 7.64437C4.66454 8.38551 0.141235 13.3782 0.141235 19.4075C0.141235 25.946 5.46068 31.2655 11.9992 31.2655C12.9033 31.2655 13.7907 31.1652 14.6547 30.9675C13.4676 30.1826 12.4016 29.2164 11.502 28.1024Z" fill="black"/>
<path d="M22.2833 7.5498C21.3792 7.5498 20.4918 7.6501 19.6278 7.84778C20.8148 8.63276 21.8809 9.59894 22.7805 10.7129C27.352 10.9716 30.992 14.7723 30.992 19.4077C30.992 24.2101 27.0853 28.1171 22.2834 28.1171C20.1358 28.1171 18.0735 27.3291 16.4765 25.8982C14.6321 24.2485 13.574 21.8826 13.574 19.4077C13.574 17.3322 14.3185 15.3336 15.6469 13.7692C14.7048 13.1588 13.6231 12.7941 12.4959 12.711C11.1392 14.6858 10.4246 16.9901 10.4246 19.4077C10.4246 21.9978 11.2446 24.4579 12.7959 26.5222C14.0284 28.163 15.6688 29.462 17.5399 30.2788C19.0374 30.9338 20.633 31.2657 22.2834 31.2657C28.8219 31.2657 34.1413 25.9462 34.1413 19.4077C34.1412 12.8692 28.8218 7.5498 22.2833 7.5498Z" fill="black"/>
</svg>
