<svg width="32" height="32" viewBox="0 0 32 32" fill="none" xmlns="http://www.w3.org/2000/svg">
<path d="M16.0005 18.9214C13.5108 18.9214 11.4849 16.8957 11.4849 14.4058C11.4849 11.9158 13.5108 9.89014 16.0005 9.89014C18.4902 9.89014 20.5161 11.9158 20.5161 14.4058C20.5161 16.8957 18.4902 18.9214 16.0005 18.9214ZM16.0005 11.4839C14.3896 11.4839 13.0786 12.7946 13.0786 14.4058C13.0786 16.0169 14.3896 17.3276 16.0005 17.3276C17.6114 17.3276 18.9224 16.0169 18.9224 14.4058C18.9224 12.7946 17.6114 11.4839 16.0005 11.4839Z" fill="black"/>
<path d="M12.3726 14.3951C12.0676 14.3951 11.7771 14.2193 11.6448 13.9233L9.04713 8.11145C8.86763 7.70964 9.04766 7.23832 9.44921 7.05856C9.85283 6.87827 10.3223 7.05959 10.5019 7.46088L13.0995 13.2727C13.279 13.6745 13.099 14.1459 12.6974 14.3256C12.5916 14.3728 12.4811 14.3951 12.3726 14.3951Z" fill="black"/>
<path d="M10.7945 31.1399C10.3546 31.1399 9.99766 30.7832 9.99766 30.343V19.3567L6.66853 11.9047C6.48903 11.5028 6.66905 11.0315 7.0706 10.852C7.47371 10.6717 7.94426 10.853 8.12325 11.2546L11.5219 18.8617C11.5676 18.9639 11.5914 19.0747 11.5914 19.1868V30.343C11.5914 30.7832 11.2345 31.1399 10.7945 31.1399Z" fill="black"/>
<path d="M21.2067 31.1403C20.7668 31.1403 20.4099 30.7836 20.4099 30.3434V19.1872C20.4099 19.0751 20.4337 18.9643 20.4794 18.8621L25.0853 8.55049C25.2648 8.14894 25.7364 7.96762 26.1374 8.14791C26.5395 8.32741 26.7195 8.79874 26.54 9.20055L22.0036 19.3571V30.3434C22.0036 30.7836 21.6467 31.1403 21.2067 31.1403Z" fill="black"/>
<path d="M19.6283 14.3954C19.5199 14.3954 19.4094 14.3731 19.3035 14.3259C18.902 14.1461 18.7219 13.6748 18.9014 13.273L21.4991 7.46115C21.6781 7.05986 22.1486 6.87906 22.5517 7.05882C22.9533 7.23858 23.1333 7.70991 22.9538 8.11172L20.3562 13.9236C20.2239 14.2195 19.9328 14.3954 19.6283 14.3954Z" fill="black"/>
<path d="M8.56299 20.5153C6.36588 20.5153 4.57861 18.728 4.57861 16.5309C4.57861 15.7908 4.78406 15.0671 5.17316 14.4383C5.40402 14.0637 5.89584 13.9486 6.2699 14.1797C6.64395 14.4111 6.76016 14.9024 6.52826 15.2767C6.29532 15.6533 6.17236 16.0871 6.17236 16.5309C6.17236 17.8492 7.24472 18.9215 8.56299 18.9215C9.15338 18.9215 9.71213 18.7098 10.1375 18.3254C10.4628 18.031 10.9676 18.0551 11.2628 18.3817C11.558 18.708 11.5331 19.212 11.2063 19.5072C10.4877 20.1573 9.54923 20.5153 8.56299 20.5153Z" fill="black"/>
<path d="M23.4381 20.5153C22.4519 20.5153 21.5134 20.1573 20.7948 19.5072C20.468 19.212 20.4431 18.708 20.7383 18.3817C21.0335 18.0546 21.5377 18.0305 21.8635 18.3254C22.289 18.7098 22.8477 18.9215 23.4381 18.9215C24.7564 18.9215 25.8287 17.8492 25.8287 16.5309C25.8287 16.0871 25.7058 15.6533 25.4728 15.2767C25.2409 14.9024 25.3571 14.4111 25.7312 14.1797C26.1058 13.9486 26.5971 14.0637 26.8279 14.4383C27.217 15.0671 27.4225 15.7908 27.4225 16.5309C27.4225 18.728 25.6352 20.5153 23.4381 20.5153Z" fill="black"/>
<path d="M30.3446 31.1401H1.65707C1.43606 31.1401 1.22491 31.0483 1.07446 30.887C0.923485 30.7254 0.846704 30.5085 0.862269 30.288L1.42776 22.1356C1.55227 20.3333 3.06561 18.9214 4.87206 18.9214H8.56332C9.00325 18.9214 9.36019 19.2781 9.36019 19.7183C9.36019 20.1585 9.00325 20.5151 8.56332 20.5151H4.87206C3.89932 20.5151 3.0848 21.2754 3.01736 22.2458L2.51101 29.5464H29.4906L28.9843 22.2461C28.9168 21.2754 28.1023 20.5151 27.1296 20.5151H23.4383C22.9984 20.5151 22.6414 20.1585 22.6414 19.7183C22.6414 19.2781 22.9984 18.9214 23.4383 18.9214H27.1296C28.936 18.9214 30.4494 20.3333 30.5739 22.1359L31.1394 30.288C31.1549 30.5085 31.0782 30.7254 30.9272 30.887C30.7767 31.0483 30.5656 31.1401 30.3446 31.1401Z" fill="black"/>
<path d="M26.8905 31.1401C26.4708 31.1401 26.1195 30.8123 26.0951 30.3881L25.7502 24.2788C25.7258 23.8393 26.0614 23.4632 26.5009 23.4383C26.9543 23.4189 27.3164 23.7496 27.3418 24.189L27.6868 30.2984C27.7112 30.7378 27.3755 31.1139 26.9361 31.1388C26.9206 31.1396 26.9055 31.1401 26.8905 31.1401Z" fill="black"/>
<path d="M5.11017 31.1401C5.09512 31.1401 5.08008 31.1395 5.06451 31.1388C4.62509 31.1139 4.28943 30.7377 4.31381 30.2983L4.65881 24.1889C4.68423 23.7495 5.05258 23.4198 5.49978 23.4382C5.93921 23.4631 6.27487 23.8393 6.25049 24.2787L5.90549 30.3881C5.8811 30.8122 5.52988 31.1401 5.11017 31.1401Z" fill="black"/>
<path d="M30.6891 4.21934C21.3538 -0.259964 10.6468 -0.259964 1.31156 4.21934C0.927645 4.40378 0.756445 4.85747 0.922975 5.24942L3.0267 10.2016C3.11179 10.4021 3.27521 10.5588 3.4791 10.6356C3.68298 10.7124 3.90866 10.7025 4.10529 10.6086C11.6642 6.98065 20.3364 6.98065 27.8953 10.6086C28.0043 10.6607 28.122 10.6869 28.2403 10.6869C28.3353 10.6869 28.4307 10.6698 28.5215 10.6356C28.7254 10.5588 28.8888 10.4021 28.9739 10.2016L31.0776 5.24942C31.2442 4.85747 31.073 4.40377 30.6891 4.21934Z" fill="black"/>
</svg>
