<svg width="28" height="28" viewBox="0 0 28 28" fill="none" xmlns="http://www.w3.org/2000/svg">
<path id="# (Stroke)" fill-rule="evenodd" clip-rule="evenodd" d="M0.791855 15.3093H5.62989L5.89106 13.1836H1.1551L1.94347 6.15389H6.7547L7.48025 0.248291H14.712L13.978 6.15389H15.9451L16.6706 0.248291H23.9024L23.1684 6.15389H27.8817L27.159 13.1836H22.2947L22.0305 15.3093H26.7824L25.9905 22.304H21.1612L20.4533 28H13.2611L13.9609 22.304H11.9708L11.2629 28H4.07076L4.77054 22.304H0L0.791855 15.3093ZM6.63036 20.6587L5.93057 26.3547H9.8094L10.5173 20.6587H15.8207L15.1209 26.3547H18.9998L19.7077 20.6587H24.521L24.9403 16.9546H20.1681L20.8412 11.5383H25.6742L26.0585 7.7992H21.306L22.0399 1.8936H18.1262L17.4006 7.7992H12.1156L12.8496 1.8936H8.93579L8.21025 7.7992H3.41458L2.99524 11.5383H7.75088L7.08543 16.9546H2.26141L1.84208 20.6587H6.63036ZM10.9777 16.9546H16.2758L16.9412 11.5383H11.6509L10.9777 16.9546ZM12.8401 15.3093H14.8203L15.0814 13.1836H13.1043L12.8401 15.3093Z" fill="url(#paint0_linear_91_6355)"/>
<defs>
<linearGradient id="paint0_linear_91_6355" x1="12.3566" y1="0.248291" x2="25.0858" y2="19.8858" gradientUnits="userSpaceOnUse">
<stop offset="0.0369155" stop-color="#FF0062"/>
<stop offset="1" stop-color="#FF6600"/>
</linearGradient>
</defs>
</svg>
